<svg width="137" height="33" viewBox="0 0 137 33" fill="none" xmlns="http://www.w3.org/2000/svg">
<path d="M50.6049 12.3898C50.2583 11.7512 49.7565 11.2678 49.0997 10.9394C48.4611 10.5928 47.704 10.4194 46.8283 10.4194C45.3139 10.4194 44.1008 10.9212 43.1885 11.9246C42.2762 12.9098 41.8202 14.2325 41.8202 15.8927C41.8202 17.6624 42.2946 19.0491 43.2432 20.0525C44.2102 21.0377 45.5329 21.5303 47.2114 21.5303C48.3608 21.5303 49.3278 21.2384 50.1123 20.6546C50.9151 20.0707 51.4988 19.2315 51.8638 18.1368H45.9252V14.6886H56.1056V19.0399C55.759 20.2075 55.166 21.2931 54.3268 22.2966C53.5058 23.3 52.4567 24.1119 51.1796 24.7322C49.9025 25.3525 48.4611 25.6627 46.8556 25.6627C44.9582 25.6627 43.2614 25.2522 41.7654 24.4312C40.2876 23.592 39.1291 22.4334 38.2899 20.9556C37.4688 19.4778 37.0583 17.7902 37.0583 15.8927C37.0583 13.9953 37.4688 12.3077 38.2899 10.8299C39.1291 9.33388 40.2876 8.17532 41.7654 7.35432C43.2432 6.51511 44.9308 6.09545 46.8283 6.09545C49.1271 6.09545 51.061 6.65194 52.63 7.76482C54.2173 8.8777 55.2664 10.4194 55.7772 12.3898H50.6049ZM63.3775 12.8003C63.9248 11.9611 64.609 11.3043 65.43 10.8299C66.251 10.3373 67.1632 10.091 68.1666 10.091V15.0444H66.8804C65.7128 15.0444 64.8371 15.2998 64.2532 15.8106C63.6693 16.3032 63.3775 17.179 63.3775 18.4379V25.5258H58.6978V10.2552H63.3775V12.8003ZM77.3546 25.7448C75.8585 25.7448 74.5085 25.4255 73.3043 24.7869C72.1184 24.1483 71.1788 23.2362 70.4856 22.0503C69.8104 20.8643 69.473 19.4778 69.473 17.8905C69.473 16.3215 69.8196 14.9441 70.5129 13.7581C71.2061 12.554 72.1549 11.6327 73.3591 10.9941C74.5632 10.3555 75.9132 10.0363 77.4093 10.0363C78.9054 10.0363 80.2555 10.3555 81.4596 10.9941C82.6638 11.6327 83.6124 12.554 84.3058 13.7581C84.999 14.9441 85.3457 16.3215 85.3457 17.8905C85.3457 19.4596 84.9899 20.8461 84.2784 22.0503C83.5851 23.2362 82.6272 24.1483 81.4049 24.7869C80.2007 25.4255 78.8506 25.7448 77.3546 25.7448ZM77.3546 21.6945C78.2486 21.6945 79.0057 21.3661 79.626 20.7093C80.2645 20.0525 80.5839 19.1129 80.5839 17.8905C80.5839 16.6682 80.2737 15.7285 79.6534 15.0717C79.0513 14.4149 78.3033 14.0865 77.4093 14.0865C76.4971 14.0865 75.74 14.4149 75.1379 15.0717C74.5358 15.7103 74.2348 16.6499 74.2348 17.8905C74.2348 19.1129 74.5267 20.0525 75.1105 20.7093C75.7126 21.3661 76.4606 21.6945 77.3546 21.6945ZM109.749 10.2552L105.616 25.5258H100.444L98.0362 15.6191L95.5458 25.5258H90.4009L86.2411 10.2552H90.9208L93.0828 21.1745L95.6553 10.2552H100.608L103.208 21.1198L105.343 10.2552H109.749ZM119.196 14.1413H116.679V25.5258H111.999V14.1413H110.302V10.2552H111.999V9.81733C111.999 7.93818 112.537 6.51511 113.614 5.54812C114.69 4.56291 116.268 4.07031 118.348 4.07031C118.694 4.07031 118.95 4.07944 119.114 4.09768V8.06586C118.221 8.01112 117.591 8.1388 117.226 8.44899C116.861 8.75918 116.679 9.31557 116.679 10.1184V10.2552H119.196V14.1413ZM136.994 10.2552L127.416 32.778H122.38L125.883 25.0059L119.671 10.2552H124.898L128.429 19.8062L131.931 10.2552H136.994Z" fill="white"/>
<path d="M16.1565 7.63213C16.1565 3.56289 19.4552 0.26416 23.5245 0.26416H30.8924V7.63213C30.8924 11.7014 27.5937 15.0001 23.5245 15.0001C19.4552 15.0001 16.1565 11.7014 16.1565 7.63213Z" fill="#FF6D35"/>
<path d="M23.5243 32.6773C19.4551 32.6773 16.1564 29.3786 16.1564 25.3094V17.9414H23.5243C27.5936 17.9414 30.8923 21.2402 30.8923 25.3094C30.8923 29.3786 27.5936 32.6773 23.5243 32.6773Z" fill="#5CC97B"/>
<path d="M13.8348 15.6522C13.8348 7.47539 7.70859 0.846924 0.151489 0.846924V25.0214C0.151489 29.1096 3.21461 32.424 6.99327 32.424C10.7718 32.424 13.8348 29.1096 13.8348 25.0214V15.6522Z" fill="#3D96F4"/>
</svg>
